<svg xmlns="http://www.w3.org/2000/svg" version="1.1" xmlns:xlink="http://www.w3.org/1999/xlink" width="512" height="512" x="0" y="0" viewBox="0 0 512 512" style="enable-background:new 0 0 512 512" xml:space="preserve" class=""><g><path d="M136.712 360.076a7.5 7.5 0 0 0 7.937-7.035l14.629-242.501h170.58c4.141 0 7.5-3.36 7.5-7.49 0-4.14-3.359-7.51-7.5-7.51H283.5v-7.496c0-12.406-10.093-22.5-22.5-22.5h-10c-11.488 0-22.5 9.05-22.5 22.5v7.496h-67.201c1.742-5.041 4.806-9.598 8.921-13.089l74.609-63.305A17.48 17.48 0 0 1 256.124 15c4.132 0 8.143 1.473 11.294 4.146l29.034 24.636a7.501 7.501 0 0 0 9.705-11.437L277.123 7.709A32.49 32.49 0 0 0 256.124 0a32.492 32.492 0 0 0-21 7.709l-74.609 63.305c-10.871 9.224-15.784 22.948-15.784 31.588l-15.053 249.537a7.5 7.5 0 0 0 7.034 7.937zM243.5 88.044c0-4.025 3.098-7.5 7.833-7.5H261c4.136 0 7.5 3.364 7.5 7.5v7.496h-25z" fill="#ffffff" opacity="0.4196078431372549" data-original="#000000" class=""></path><path d="M443 432h-55.816c-.017-.285-19.668-329.472-19.699-329.756-.817-12.048-6.54-23.414-15.753-31.23l-22.699-19.26a7.5 7.5 0 0 0-9.705 11.437l22.699 19.26a30.08 30.08 0 0 1 10.516 21.04L372.158 432h-232.27l2.957-49.013a7.5 7.5 0 0 0-7.035-7.938c-4.138-.268-7.688 2.899-7.938 7.035L124.86 432H69c-12.407 0-22.5 10.094-22.5 22.5 0 9.777 6.271 18.114 15 21.21v28.79A7.5 7.5 0 0 0 69 512h30a7.5 7.5 0 0 0 7.5-7.5V477h14v27.5a7.5 7.5 0 0 0 7.5 7.5h256c4.143 0 7.5-3.357 7.5-7.5V477h14v27.5c0 4.143 3.357 7.5 7.5 7.5h30c4.143 0 7.5-3.357 7.5-7.5v-28.79c8.729-3.097 15-11.433 15-21.21 0-12.406-10.094-22.5-22.5-22.5zM91.5 497h-15v-20h15zm59 0h-15v-20h15zm41 0h-26v-20h26zm30 0h-15v-20h15zm54 0h-39v-20h39zm30 0h-15v-20h15zm41 0h-26v-20h26zm30 0h-15v-20h15zm59 0h-15v-20h15zm7.5-35H69c-4.136 0-7.5-3.364-7.5-7.5s3.364-7.5 7.5-7.5h374c4.136 0 7.5 3.364 7.5 7.5s-3.364 7.5-7.5 7.5z" fill="#ffffff" opacity="0.4196078431372549" data-original="#000000" class=""></path><path d="M195.051 251.06v12c0 4.143 3.358 7.5 7.5 7.5s7.5-3.357 7.5-7.5v-12c0-4.143-3.358-7.5-7.5-7.5s-7.5 3.357-7.5 7.5zM301.949 251.06v12c0 4.143 3.357 7.5 7.5 7.5s7.5-3.357 7.5-7.5v-12c0-4.143-3.357-7.5-7.5-7.5s-7.5 3.357-7.5 7.5zM263.346 257.775c-3.892 4.465-10.804 4.462-14.692 0a7.5 7.5 0 1 0-11.308 9.855c9.869 11.324 27.448 11.314 37.308 0a7.5 7.5 0 1 0-11.308-9.855z" fill="#ffffff" opacity="0.4196078431372549" data-original="#000000" class=""></path></g></svg>